<svg xmlns="http://www.w3.org/2000/svg" width="512" height="512" viewBox="0 0 512 512" role="img" aria-labelledby="title desc">
<title id="title">GENORRA Brand Mark</title><desc id="desc">GENORRA Premium Family brand artwork.</desc>

<defs>
  <linearGradient id="gradWarm" x1="0" y1="0" x2="1" y2="1"><stop offset="0" stop-color="#D6A24A"/><stop offset="0.55" stop-color="#C65D3A"/><stop offset="1" stop-color="#B86766"/></linearGradient>
  <linearGradient id="gradRose" x1="0" y1="0" x2="1" y2="1"><stop offset="0" stop-color="#C97B67"/><stop offset="0.5" stop-color="#9A4857"/><stop offset="1" stop-color="#6B2D3A"/></linearGradient>
  <linearGradient id="gradOlive" x1="0" y1="0" x2="1" y2="1"><stop offset="0" stop-color="#D6A24A"/><stop offset="1" stop-color="#7A7F4E"/></linearGradient>
  <linearGradient id="gradBurg" x1="0" y1="0" x2="1" y2="1"><stop offset="0" stop-color="#A25A63"/><stop offset="1" stop-color="#6B2D3A"/></linearGradient>
  <mask id="heartCut"><rect x="0" y="0" width="256" height="256" fill="white"/><path d="M128 188 L111 171 C80 143 77 120 84 103 C92 83 113 78 128 95 C143 78 164 83 172 103 C179 120 176 143 145 171 Z" fill="black"/></mask>
</defs><g id="mark" transform="translate(0 0) scale(2.0)">
  <g mask="url(#heartCut)" fill="none" stroke-linecap="round" stroke-linejoin="round">
    <path d="M126 133 C100 129 80 113 73 91 C67 72 75 54 91 47 C108 39 126 48 139 68" stroke="#FAF7F2" stroke-width="25"/>
    <path d="M130 133 C156 129 176 113 183 91 C189 72 181 54 165 47 C148 39 130 48 117 68" stroke="#FAF7F2" stroke-width="25"/>
    <path d="M124 124 C112 142 96 166 75 174 C57 181 40 171 39 153 C38 134 51 119 69 114" stroke="#FAF7F2" stroke-width="25"/>
    <path d="M132 124 C144 142 160 166 181 174 C199 181 216 171 217 153 C218 134 205 119 187 114" stroke="#FAF7F2" stroke-width="25"/>
  </g>
  <circle cx="128" cy="28" r="14" fill="#FAF7F2"/>
  <circle cx="45" cy="91" r="11" fill="#FAF7F2"/>
  <circle cx="211" cy="91" r="11" fill="#FAF7F2"/>
  <rect x="119" y="211" width="18" height="18" rx="1.5" transform="rotate(45 128 220)" fill="#FAF7F2"/>
</g></svg>